<?xml version="1.0" encoding="UTF-8"?>
<svg width="25px" height="24px" viewBox="0 0 25 24" version="1.1" xmlns="http://www.w3.org/2000/svg" xmlns:xlink="http://www.w3.org/1999/xlink">
    <!-- Generator: Sketch 58 (84663) - https://sketch.com -->
    <title>Artboard</title>
    <desc>Created with Sketch.</desc>
    <g id="Artboard" stroke="none" stroke-width="1" fill="none" fill-rule="evenodd">
        <path d="M1.044,3.714 C0.507,6.745 1.537,11.03 3.944,15.214 C6.363,19.394 9.558,22.425 12.454,23.5 L12.454,0.5 C7.617,0.5 3.377,1.754 1.018,3.71 L1.044,3.714 Z" id="Path" fill="#070DE9" fill-rule="nonzero"></path>
        <path d="M20.93,15.21 C23.349,11.03 24.364,6.745 23.856,3.71 C21.5,1.773 17.287,0.5 12.435,0.5 L12.435,23.5 C15.317,22.425 18.526,19.394 20.945,15.214 L20.93,15.21 Z" id="Path" fill="#E9D100" fill-rule="nonzero"></path>
        <path d="M18.153,4.267 C17.4465458,4.06810328 16.7271553,3.91841123 16,3.819 C16.0063286,4.14793537 15.991632,4.47693901 15.956,4.804 C15.896,5.55 15.806,6.342 15.702,7.118 C16.1452242,7.25148734 16.5711643,7.43676625 16.971,7.67 C16.9637536,8.2148937 16.888505,8.75675102 16.747,9.283 C16.4944536,10.2831899 16.0918891,11.2393649 15.553,12.119 C15.0813731,13.0280374 14.4661298,13.8550027 13.731,14.568 C13.3339468,14.9416516 12.898145,15.2718553 12.431,15.553 C11.9640612,15.2788088 11.5327934,14.9479686 11.147,14.568 C10.4082396,13.8476166 9.779505,13.0224445 9.281,12.119 C8.75449609,11.2330625 8.35270976,10.2787359 8.087,9.283 C7.95092402,8.75646561 7.88799971,8.21370132 7.9,7.67 C8.29011648,7.42823854 8.71223357,7.24242623 9.154,7.118 C9.04874043,6.34906639 8.96404354,5.57745776 8.9,4.804 C8.9,4.446 8.87,4.117 8.855,3.804 C8.109,3.953 7.392,4.104 6.72,4.281 C5.74028834,4.54125496 4.80039204,4.93315875 3.926,5.446 C3.93257699,6.4641124 4.06696136,7.47737058 4.326,8.462 C4.81189588,10.3276676 5.55537736,12.1165332 6.535,13.777 C7.48914357,15.4497313 8.66438957,16.9862292 10.029,18.345 C10.7469562,19.0589965 11.5499813,19.6820042 12.42,20.2 C13.304148,19.6919479 14.117484,19.0695895 14.839,18.349 C16.1973873,16.9850266 17.371667,15.4493525 18.332,13.781 C19.3148861,12.122047 20.0588802,10.332758 20.542,8.466 C20.8147975,7.48413089 20.9494257,6.46903399 20.942,5.45 C20.0646483,4.94454411 19.1264117,4.55305212 18.15,4.285 L18.153,4.267 Z" id="Path" fill="#FFFFFF" fill-rule="nonzero"></path>
    </g>
</svg>