<?xml version="1.0" encoding="UTF-8"?>
<svg width="222px" height="24px" viewBox="0 0 222 24" version="1.1" xmlns="http://www.w3.org/2000/svg" xmlns:xlink="http://www.w3.org/1999/xlink">
    <!-- Generator: Sketch 58 (84663) - https://sketch.com -->
    <title>Artboard</title>
    <desc>Created with Sketch.</desc>
    <g id="Artboard" stroke="none" stroke-width="1" fill="none" fill-rule="evenodd">
        <g id="logo-light" fill-rule="nonzero">
            <g id="logo-with-text">
                <path d="M1.044,3.714 C0.507,6.745 1.537,11.03 3.944,15.214 C6.363,19.394 9.558,22.425 12.454,23.5 L12.454,0.5 C7.617,0.5 3.377,1.754 1.018,3.71 L1.044,3.714 Z" id="Path" fill="#070DE9"></path>
                <path d="M20.93,15.21 C23.349,11.03 24.364,6.745 23.856,3.71 C21.5,1.773 17.287,0.5 12.435,0.5 L12.435,23.5 C15.317,22.425 18.526,19.394 20.945,15.214 L20.93,15.21 Z" id="Path" fill="#E9D100"></path>
                <path d="M18.153,4.267 C17.4465458,4.06810328 16.7271553,3.91841123 16,3.819 C16.0063286,4.14793537 15.991632,4.47693901 15.956,4.804 C15.896,5.55 15.806,6.342 15.702,7.118 C16.1452242,7.25148734 16.5711643,7.43676625 16.971,7.67 C16.9637536,8.2148937 16.888505,8.75675102 16.747,9.283 C16.4944536,10.2831899 16.0918891,11.2393649 15.553,12.119 C15.0813731,13.0280374 14.4661298,13.8550027 13.731,14.568 C13.3339468,14.9416516 12.898145,15.2718553 12.431,15.553 C11.9640612,15.2788088 11.5327934,14.9479686 11.147,14.568 C10.4082396,13.8476166 9.779505,13.0224445 9.281,12.119 C8.75449609,11.2330625 8.35270976,10.2787359 8.087,9.283 C7.95092402,8.75646561 7.88799971,8.21370132 7.9,7.67 C8.29011648,7.42823854 8.71223357,7.24242623 9.154,7.118 C9.04874043,6.34906639 8.96404354,5.57745776 8.9,4.804 C8.9,4.446 8.87,4.117 8.855,3.804 C8.109,3.953 7.392,4.104 6.72,4.281 C5.74028834,4.54125496 4.80039204,4.93315875 3.926,5.446 C3.93257699,6.4641124 4.06696136,7.47737058 4.326,8.462 C4.81189588,10.3276676 5.55537736,12.1165332 6.535,13.777 C7.48914357,15.4497313 8.66438957,16.9862292 10.029,18.345 C10.7469562,19.0589965 11.5499813,19.6820042 12.42,20.2 C13.304148,19.6919479 14.117484,19.0695895 14.839,18.349 C16.1973873,16.9850266 17.371667,15.4493525 18.332,13.781 C19.3148861,12.122047 20.0588802,10.332758 20.542,8.466 C20.8147975,7.48413089 20.9494257,6.46903399 20.942,5.45 C20.0646483,4.94454411 19.1264117,4.55305212 18.15,4.285 L18.153,4.267 Z" id="Path" fill="#FFFFFF"></path>
            </g>
        </g>
        <path d="M36.948,10.492 C36.684,10.036 36.24,9.808 35.616,9.808 C34.86,9.808 34.248,10.072 33.78,10.588 C33.324,11.104 33.096,11.728 33.096,12.46 C33.096,13.768 33.852,14.704 35.16,14.704 C35.844,14.704 36.372,14.428 36.732,13.876 C36.96,14.344 37.452,14.704 38.076,14.704 C39.324,14.704 40.176,13.708 40.176,11.776 C40.176,10.372 39.78,9.292 38.988,8.536 C38.208,7.768 37.128,7.384 35.772,7.384 C34.452,7.384 33.324,7.84 32.376,8.752 C31.44,9.652 30.972,10.864 30.972,12.388 C30.972,13.816 31.416,14.956 32.304,15.832 C33.204,16.696 34.332,17.128 35.7,17.128 C36.348,17.128 36.888,17.068 37.32,16.96 C37.752,16.852 38.304,16.636 38.964,16.336 L38.628,15.532 C38.064,15.832 37.56,16.024 37.128,16.12 C36.708,16.216 36.228,16.264 35.7,16.264 C34.692,16.264 33.816,15.928 33.084,15.244 C32.352,14.56 31.98,13.612 31.98,12.424 C31.98,9.652 33.804,8.248 35.712,8.248 C38.016,8.248 39.168,9.424 39.168,11.776 C39.168,13.132 38.82,13.816 38.124,13.816 C37.752,13.816 37.56,13.612 37.56,13.192 L37.86,9.892 L37.068,9.892 L36.948,10.492 Z M35.532,10.696 C36.312,10.696 36.708,11.14 36.708,12.016 C36.708,13.024 36.156,13.816 35.244,13.816 C34.488,13.816 34.08,13.324 34.08,12.496 C34.08,11.428 34.608,10.696 35.532,10.696 Z M44.556,14.5 L42.252,7.6 L41.136,7.6 L44.028,16 L45.084,16 L47.976,7.6 L46.86,7.6 L44.556,14.5 Z M49.512,15.184 C50.052,15.796 50.748,16.096 51.624,16.096 C52.5,16.096 53.196,15.796 53.724,15.184 C54.264,14.572 54.528,13.828 54.528,12.976 C54.528,12.124 54.264,11.392 53.724,10.78 C53.196,10.168 52.5,9.856 51.624,9.856 C50.748,9.856 50.052,10.168 49.512,10.78 C48.984,11.392 48.72,12.124 48.72,12.976 C48.72,13.828 48.984,14.572 49.512,15.184 Z M50.244,11.428 C50.58,10.984 51.036,10.768 51.624,10.768 C52.212,10.768 52.668,10.984 52.992,11.428 C53.328,11.86 53.496,12.376 53.496,12.976 C53.496,13.576 53.328,14.092 52.992,14.536 C52.668,14.968 52.212,15.184 51.624,15.184 C51.036,15.184 50.58,14.968 50.244,14.536 C49.92,14.092 49.752,13.576 49.752,12.976 C49.752,12.376 49.92,11.86 50.244,11.428 Z M56.616,15.184 C57.156,15.796 57.852,16.096 58.728,16.096 C59.604,16.096 60.3,15.796 60.828,15.184 C61.368,14.572 61.632,13.828 61.632,12.976 C61.632,12.124 61.368,11.392 60.828,10.78 C60.3,10.168 59.604,9.856 58.728,9.856 C57.852,9.856 57.156,10.168 56.616,10.78 C56.088,11.392 55.824,12.124 55.824,12.976 C55.824,13.828 56.088,14.572 56.616,15.184 Z M57.348,11.428 C57.684,10.984 58.14,10.768 58.728,10.768 C59.316,10.768 59.772,10.984 60.096,11.428 C60.432,11.86 60.6,12.376 60.6,12.976 C60.6,13.576 60.432,14.092 60.096,14.536 C59.772,14.968 59.316,15.184 58.728,15.184 C58.14,15.184 57.684,14.968 57.348,14.536 C57.024,14.092 56.856,13.576 56.856,12.976 C56.856,12.376 57.024,11.86 57.348,11.428 Z M66.996,10.036 C66.768,9.916 66.492,9.856 66.168,9.856 C65.496,9.856 64.74,10.312 64.392,10.984 L64.392,9.952 L63.384,9.952 L63.384,16 L64.392,16 L64.392,13.708 C64.392,12.784 64.56,12.064 64.896,11.548 C65.232,11.032 65.628,10.768 66.084,10.768 C66.336,10.768 66.564,10.828 66.792,10.936 L66.996,10.036 Z M73.224,11.8 C73.224,10.54 72.564,9.856 71.448,9.856 C70.524,9.856 69.732,10.324 69.348,11.08 L69.348,7.504 L68.34,7.504 L68.34,16 L69.348,16 L69.348,13.432 C69.348,12.64 69.528,12.004 69.9,11.512 C70.272,11.02 70.704,10.768 71.172,10.768 C71.868,10.768 72.216,11.176 72.216,12.004 L72.216,16 L73.224,16 L73.224,11.8 Z M75.696,15.184 C76.236,15.796 76.932,16.096 77.808,16.096 C78.684,16.096 79.38,15.796 79.908,15.184 C80.448,14.572 80.712,13.828 80.712,12.976 C80.712,12.124 80.448,11.392 79.908,10.78 C79.38,10.168 78.684,9.856 77.808,9.856 C76.932,9.856 76.236,10.168 75.696,10.78 C75.168,11.392 74.904,12.124 74.904,12.976 C74.904,13.828 75.168,14.572 75.696,15.184 Z M76.428,11.428 C76.764,10.984 77.22,10.768 77.808,10.768 C78.396,10.768 78.852,10.984 79.176,11.428 C79.512,11.86 79.68,12.376 79.68,12.976 C79.68,13.576 79.512,14.092 79.176,14.536 C78.852,14.968 78.396,15.184 77.808,15.184 C77.22,15.184 76.764,14.968 76.428,14.536 C76.104,14.092 75.936,13.576 75.936,12.976 C75.936,12.376 76.104,11.86 76.428,11.428 Z M87.48,12.724 C87.48,11.92 87.24,11.248 86.748,10.696 C86.268,10.132 85.596,9.856 84.744,9.856 C83.868,9.856 83.196,10.156 82.716,10.768 C82.248,11.368 82.008,12.1 82.008,12.976 C82.008,13.852 82.248,14.584 82.716,15.196 C83.196,15.796 83.868,16.096 84.744,16.096 C85.992,16.096 86.748,15.604 87.312,14.416 L86.424,14.032 C86.076,14.812 85.596,15.184 84.744,15.184 C83.7,15.184 83.1,14.38 83.04,13.192 L87.48,13.192 L87.48,12.724 Z M84.744,10.768 C85.668,10.768 86.232,11.368 86.424,12.28 L83.1,12.28 C83.292,11.356 83.844,10.768 84.744,10.768 Z M91.416,9.856 C89.688,9.856 88.728,11.104 88.728,12.976 C88.728,14.848 89.688,16.096 91.416,16.096 C92.136,16.096 92.88,15.724 93.18,15.256 L93.18,16 L94.188,16 L94.188,7.504 L93.18,7.504 L93.18,10.672 C93.072,10.48 92.832,10.3 92.484,10.12 C92.136,9.94 91.776,9.856 91.416,9.856 Z M91.512,15.184 C90.456,15.184 89.76,14.284 89.76,12.976 C89.76,11.668 90.456,10.768 91.512,10.768 C92.604,10.768 93.264,11.668 93.264,12.976 C93.264,14.284 92.604,15.184 91.512,15.184 Z M101.412,12.724 C101.412,11.92 101.172,11.248 100.68,10.696 C100.2,10.132 99.528,9.856 98.676,9.856 C97.8,9.856 97.128,10.156 96.648,10.768 C96.18,11.368 95.94,12.1 95.94,12.976 C95.94,13.852 96.18,14.584 96.648,15.196 C97.128,15.796 97.8,16.096 98.676,16.096 C99.924,16.096 100.68,15.604 101.244,14.416 L100.356,14.032 C100.008,14.812 99.528,15.184 98.676,15.184 C97.632,15.184 97.032,14.38 96.972,13.192 L101.412,13.192 L101.412,12.724 Z M98.676,10.768 C99.6,10.768 100.164,11.368 100.356,12.28 L97.032,12.28 C97.224,11.356 97.776,10.768 98.676,10.768 Z M102.24,16.6 L103.248,16.6 L108.48,7 L107.472,7 L102.24,16.6 Z M114.42,11.74 C114.42,10.54 113.748,9.856 112.644,9.856 C111.768,9.856 111.096,10.264 110.64,11.068 L110.64,9.952 L109.632,9.952 L109.632,16 L110.64,16 L110.64,13.468 C110.64,12.664 110.808,12.004 111.144,11.512 C111.492,11.02 111.9,10.768 112.368,10.768 C113.064,10.768 113.412,11.176 113.412,12.004 L113.412,16 L114.42,16 L114.42,11.74 Z M116.484,14.212 C116.484,15.412 117.156,16.096 118.26,16.096 C119.136,16.096 119.808,15.688 120.264,14.884 L120.264,16 L121.272,16 L121.272,9.952 L120.264,9.952 L120.264,12.484 C120.264,13.288 120.096,13.948 119.748,14.44 C119.412,14.932 119.004,15.184 118.536,15.184 C117.84,15.184 117.492,14.776 117.492,13.948 L117.492,9.952 L116.484,9.952 L116.484,14.212 Z M124.56,12.808 L122.592,16 L123.732,16 L125.124,13.732 L126.516,16 L127.656,16 L125.688,12.808 L127.44,9.952 L126.3,9.952 L125.124,11.872 L123.948,9.952 L122.808,9.952 L124.56,12.808 Z M129.216,10.864 L129.216,14.104 C129.216,15.412 129.9,16.096 130.968,16.096 C131.364,16.096 131.688,16.024 131.952,15.868 L131.712,14.992 C131.52,15.124 131.292,15.184 131.028,15.184 C130.512,15.184 130.224,14.824 130.224,14.188 L130.224,10.864 L131.808,10.864 L131.808,9.952 L130.224,9.952 L130.224,7.504 L129.216,8.14 L129.216,9.952 L128.172,9.952 L128.172,10.864 L129.216,10.864 Z M137.328,12.64 L137.328,11.752 L133.26,11.752 L133.26,12.64 L137.328,12.64 Z M142.056,16.096 C143.784,16.096 144.744,14.848 144.744,12.976 C144.744,11.104 143.784,9.856 142.056,9.856 C141.336,9.856 140.592,10.228 140.292,10.696 L140.292,9.952 L139.284,9.952 L139.284,18.448 L140.292,18.448 L140.292,15.28 C140.4,15.472 140.64,15.652 140.988,15.832 C141.336,16.012 141.696,16.096 142.056,16.096 Z M141.96,10.768 C143.016,10.768 143.712,11.668 143.712,12.976 C143.712,14.284 143.016,15.184 141.96,15.184 C140.868,15.184 140.208,14.284 140.208,12.976 C140.208,11.668 140.868,10.768 141.96,10.768 Z M150.108,10.036 C149.88,9.916 149.604,9.856 149.28,9.856 C148.608,9.856 147.852,10.312 147.504,10.984 L147.504,9.952 L146.496,9.952 L146.496,16 L147.504,16 L147.504,13.708 C147.504,12.784 147.672,12.064 148.008,11.548 C148.344,11.032 148.74,10.768 149.196,10.768 C149.448,10.768 149.676,10.828 149.904,10.936 L150.108,10.036 Z M156.468,12.724 C156.468,11.92 156.228,11.248 155.736,10.696 C155.256,10.132 154.584,9.856 153.732,9.856 C152.856,9.856 152.184,10.156 151.704,10.768 C151.236,11.368 150.996,12.1 150.996,12.976 C150.996,13.852 151.236,14.584 151.704,15.196 C152.184,15.796 152.856,16.096 153.732,16.096 C154.98,16.096 155.736,15.604 156.3,14.416 L155.412,14.032 C155.064,14.812 154.584,15.184 153.732,15.184 C152.688,15.184 152.088,14.38 152.028,13.192 L156.468,13.192 L156.468,12.724 Z M153.732,10.768 C154.656,10.768 155.22,11.368 155.412,12.28 L152.088,12.28 C152.28,11.356 152.832,10.768 153.732,10.768 Z M159.804,14.716 L158.328,9.952 L157.296,9.952 L159.288,16 L160.32,16 L162.312,9.952 L161.28,9.952 L159.804,14.716 Z M163.656,16 L164.664,16 L164.664,9.952 L163.656,9.952 L163.656,16 Z M163.404,8.272 C163.404,8.692 163.728,9.016 164.16,9.016 C164.592,9.016 164.916,8.692 164.916,8.272 C164.916,7.84 164.592,7.504 164.16,7.504 C163.728,7.504 163.404,7.84 163.404,8.272 Z M171.9,12.724 C171.9,11.92 171.66,11.248 171.168,10.696 C170.688,10.132 170.016,9.856 169.164,9.856 C168.288,9.856 167.616,10.156 167.136,10.768 C166.668,11.368 166.428,12.1 166.428,12.976 C166.428,13.852 166.668,14.584 167.136,15.196 C167.616,15.796 168.288,16.096 169.164,16.096 C170.412,16.096 171.168,15.604 171.732,14.416 L170.844,14.032 C170.496,14.812 170.016,15.184 169.164,15.184 C168.12,15.184 167.52,14.38 167.46,13.192 L171.9,13.192 L171.9,12.724 Z M169.164,10.768 C170.088,10.768 170.652,11.368 170.844,12.28 L167.52,12.28 C167.712,11.356 168.264,10.768 169.164,10.768 Z M178.62,14.596 L177.432,9.952 L176.424,9.952 L175.236,14.596 L174,9.952 L172.944,9.952 L174.78,16 L175.74,16 L176.928,11.404 L178.116,16 L179.076,16 L180.912,9.952 L179.856,9.952 L178.62,14.596 Z M186.276,12.64 L186.276,11.752 L182.208,11.752 L182.208,12.64 L186.276,12.64 Z M196.416,11.74 C196.416,10.552 195.804,9.856 194.712,9.856 C193.848,9.856 193.188,10.276 192.744,11.116 C192.552,10.312 191.952,9.856 191.124,9.856 C190.272,9.856 189.648,10.264 189.24,11.068 L189.24,9.952 L188.232,9.952 L188.232,16 L189.24,16 L189.24,13.516 C189.24,11.824 189.936,10.768 190.848,10.768 C191.496,10.768 191.82,11.164 191.82,11.956 L191.82,16 L192.828,16 L192.828,13.516 C192.828,11.824 193.524,10.768 194.436,10.768 C195.084,10.768 195.408,11.164 195.408,11.956 L195.408,16 L196.416,16 L196.416,11.74 Z M198.912,15.184 C199.452,15.796 200.148,16.096 201.024,16.096 C201.9,16.096 202.596,15.796 203.124,15.184 C203.664,14.572 203.928,13.828 203.928,12.976 C203.928,12.124 203.664,11.392 203.124,10.78 C202.596,10.168 201.9,9.856 201.024,9.856 C200.148,9.856 199.452,10.168 198.912,10.78 C198.384,11.392 198.12,12.124 198.12,12.976 C198.12,13.828 198.384,14.572 198.912,15.184 Z M199.644,11.428 C199.98,10.984 200.436,10.768 201.024,10.768 C201.612,10.768 202.068,10.984 202.392,11.428 C202.728,11.86 202.896,12.376 202.896,12.976 C202.896,13.576 202.728,14.092 202.392,14.536 C202.068,14.968 201.612,15.184 201.024,15.184 C200.436,15.184 199.98,14.968 199.644,14.536 C199.32,14.092 199.152,13.576 199.152,12.976 C199.152,12.376 199.32,11.86 199.644,11.428 Z M207.912,9.856 C206.184,9.856 205.224,11.104 205.224,12.976 C205.224,14.848 206.184,16.096 207.912,16.096 C208.632,16.096 209.376,15.724 209.676,15.256 L209.676,16 L210.684,16 L210.684,7.504 L209.676,7.504 L209.676,10.672 C209.568,10.48 209.328,10.3 208.98,10.12 C208.632,9.94 208.272,9.856 207.912,9.856 Z M208.008,15.184 C206.952,15.184 206.256,14.284 206.256,12.976 C206.256,11.668 206.952,10.768 208.008,10.768 C209.1,10.768 209.76,11.668 209.76,12.976 C209.76,14.284 209.1,15.184 208.008,15.184 Z M217.908,12.724 C217.908,11.92 217.668,11.248 217.176,10.696 C216.696,10.132 216.024,9.856 215.172,9.856 C214.296,9.856 213.624,10.156 213.144,10.768 C212.676,11.368 212.436,12.1 212.436,12.976 C212.436,13.852 212.676,14.584 213.144,15.196 C213.624,15.796 214.296,16.096 215.172,16.096 C216.42,16.096 217.176,15.604 217.74,14.416 L216.852,14.032 C216.504,14.812 216.024,15.184 215.172,15.184 C214.128,15.184 213.528,14.38 213.468,13.192 L217.908,13.192 L217.908,12.724 Z M215.172,10.768 C216.096,10.768 216.66,11.368 216.852,12.28 L213.528,12.28 C213.72,11.356 214.272,10.768 215.172,10.768 Z" id="@Voorhoede/nuxt-preview-mode" fill="#0000FF" fill-rule="nonzero"></path>
    </g>
</svg>